<?xml version="1.0" encoding="UTF-8"?>
<svg id="Layer_1" data-name="Layer 1" xmlns="http://www.w3.org/2000/svg" version="1.1" viewBox="0 0 64 64">
  <defs>
    <style>
      .cls-1 {
        fill: none;
        stroke: #000;
        stroke-linecap: round;
        stroke-linejoin: round;
        stroke-width: 2px;
      }
    </style>
  </defs>
  <path class="cls-1" d="M22.05,7.28c-1.46-.6-3.06-.94-4.73-.94-6.8,0-12.32,5.52-12.32,12.33s5.51,12.32,12.32,12.32c4.1,0,7.72-1.99,9.97-5.06"/>
  <path class="cls-1" d="M41.95,7.28c1.46-.6,3.06-.94,4.73-.94,6.8,0,12.32,5.52,12.32,12.33s-5.51,12.32-12.32,12.32c-4.1,0-7.72-1.99-9.97-5.06"/>
  <path class="cls-1" d="M44.32,14.55c0-2.71-.88-5.23-2.37-7.27-2.24-3.06-5.86-5.05-9.95-5.05s-7.71,1.99-9.95,5.05c-1.49,2.04-2.37,4.55-2.37,7.27"/>
  <polyline class="cls-1" points="52.44 29.55 52.44 57.62 11.56 57.62 11.56 29.56"/>
  <rect class="cls-1" x="11.56" y="57.62" width="40.88" height="4.15"/>
</svg>